<svg fill="none" height="237" viewBox="0 0 835 237" width="835" xmlns="http://www.w3.org/2000/svg"><g fill="#000"><path d="m75.348 102h12.726l-34.524-94.50001h-13.986l-34.524 94.50001h12.222l9.576-26.586h38.934zm-44.604-37.296 15.624-43.47 15.624 43.47zm61.7725 37.296h50.2735c15.876-.252 28.476-10.206 28.476-22.05 0-16.38-18.27-22.932-31.626-23.436v-.378c18.522 0 28.602-12.726 28.602-26.586s-8.946-23.81401-22.176-23.81401c-12.852 0-27.72 6.04801-28.224 31.24801h-.378l.504-8.694c.63-9.954 4.41-18.64801 11.97-19.65601v-.88199h-37.4215v.88199c6.93.25201 11.7175 7.43401 12.5995 18.39601v55.692c-.882 10.962-5.6695 18.144-12.5995 18.396zm27.9715-66.654c0-12.222 8.946-20.412 19.908-20.412 10.836 0 16.632 6.426 16.632 16.758 0 12.6-7.182 21.546-18.018 21.546-11.088 0-18.522-7.182-18.522-17.892zm18.522 58.212c-21.042 0-21.168-24.57-21.168-52.416h.378c6.678 22.428 38.556 12.474 38.556 35.532 0 11.97-7.308 16.884-17.766 16.884zm81.846 10.584c26.334 0 43.848-19.278 43.848-48.132 0-29.358-17.514-48.888-43.848-48.888s-43.974 19.53-43.974 48.888c0 28.854 17.64 48.132 43.974 48.132zm0-10.71c-18.774 0-31.248-14.994-31.248-37.548 0-22.806 12.474-38.052 31.248-38.052s31.122 15.246 31.122 38.052c0 22.554-12.348 37.548-31.122 37.548zm113.066-86.05801v53.04601c0 20.664-9.198 32.508-25.2 32.508h-7.056v-7.182h-9.576v-6.048h-8.316v-71.946h-12.726v75.6h8.064v8.316h9.576v6.048h6.552v5.922h13.482c24.318 0 37.926-14.49 37.926-39.942v-56.32201zm89.42.126h-74.214v10.71001h30.744v83.79h12.726v-83.79h30.744z"/><path d="m68.67 132.21v-10.71h-59.85v94.5h12.726v-40.446h42.84v-10.71h-42.84v-32.634zm7.5255 68.418v-63.504h12.726v-7.056h7.056v-9.072h48.7625v11.97h-43.596v12.222h-12.2225v55.44zm87.0665-62.244v63.504h-12.726v7.056h-7.056v9.072h-48.7625v-11.97h43.5965v-12.222h12.222v-55.44zm22.867 36.666v-53.298h-12.726v56.322c0 25.452 13.104 39.816 36.414 39.816 24.318 0 37.926-14.364 37.926-39.816v-56.322h-12.726v53.046c0 20.664-9.072 32.13-25.074 32.13-15.246 0-23.814-11.34-23.814-31.878zm119.885-56.952v-.252c-11.592 0-17.64 6.678-22.806 12.852-3.78-5.796-8.442-9.198-13.734-9.198-6.426 0-12.852 5.544-12.852 12.348 0 6.174 4.032 9.072 10.332 9.072 3.906 0 7.056-1.386 9.828-3.528 5.418 15.246 2.772 46.746-15.75 76.608h23.058c6.3-13.356 8.82-28.35 8.82-42.966 0-16.884-3.402-31.752-8.946-41.076 5.544-6.678 11.214-13.86 22.05-13.86zm23.688 65.394c2.898-13.986 9.702-30.114 9.702-38.556 0-17.01-13.104-23.058-25.83-23.058-16.758 0-25.2 10.458-18.9 24.57l15.75.252c-5.04-13.356-3.528-22.302 6.174-22.302 9.576 0 20.286 7.434 20.286 20.538 0 11.844-10.332 22.176-16.632 34.65-1.89-.756-3.906-1.386-6.048-1.89v.756c1.89.63 3.78 1.26 5.67 2.016-2.646 5.292-4.41 10.962-4.41 17.262 0 12.348 6.93 20.16 16.632 20.16 8.568 0 15.246-6.426 15.246-13.86s-6.804-14.994-17.64-20.538zm-60.732-42.714c-4.284 0-7.056-2.394-7.056-5.544 0-2.898 2.268-5.418 5.418-5.418 3.78 0 6.93 3.024 8.946 8.19-2.142 1.638-4.41 2.772-7.308 2.772zm69.552 68.544c-6.048 0-10.206-5.292-10.206-14.742 0-3.024.378-6.3 1.134-9.702 9.954 5.292 15.876 11.718 15.876 17.64 0 4.032-2.52 6.804-6.804 6.804zm43.915-87.822h-27.594v94.5h27.594c28.98 0 45.486-16.758 45.486-46.494 0-30.744-16.506-48.006-45.486-48.006zm0 83.79h-14.868v-72.45h14.868c20.916.756 32.76 12.096 32.76 36.54 0 24.192-11.844 35.91-32.76 35.91zm94.806-76.734c-7.938 0-19.53-5.166-27.342-5.166-3.402 0-5.67 1.512-5.67 3.906 0 6.678 18.522 8.82 18.522 14.994 0 8.316-21.294 5.418-21.294 16.632 0 7.812 17.262 3.906 17.262 10.458 0 6.3-22.05 1.134-22.05 11.088 0 9.45 17.262 8.946 17.262 15.498 0 8.064-19.656-2.268-19.656 11.844 0 5.922 5.67 9.828 14.112 9.828 9.198 0 15.372-4.536 15.372-11.34 0-8.946-5.67-14.364-5.67-20.79 0-5.922 7.686-9.954 19.278-9.954 11.466 0 19.026 4.032 19.026 9.954 0 6.426-5.544 11.844-5.544 20.79 0 6.804 6.552 11.34 16.38 11.34 8.442 0 14.112-3.906 14.112-9.828 0-14.112-20.16-3.78-20.16-11.844 0-6.552 16.632-6.552 16.632-15.498 0-9.576-22.05-4.788-22.05-11.088 0-6.552 17.262-2.898 17.262-10.458 0-10.962-21.042-8.064-21.042-16.002 0-6.426 18.27-8.694 18.27-15.624 0-2.394-2.268-3.906-5.67-3.906-7.812 0-19.404 5.166-27.342 5.166zm0 5.166c5.67 0 9.45 1.764 9.45 4.788 0 3.78-6.048 3.78-6.048 8.19 0 4.284 9.576 7.182 9.576 13.104 0 5.292-5.166 10.458-12.978 10.458-8.064 0-13.482-5.544-13.482-11.34 0-5.67 10.08-7.938 10.08-12.222 0-4.41-7.308-4.41-7.308-8.19 0-3.024 4.284-4.788 10.71-4.788zm46.807-13.482c-.882 2.52-1.386 4.788-1.386 6.804 0 9.072 4.032 14.112 14.238 14.238 5.67 0 16.002-1.89 25.83-4.914l.252.63c-13.482 5.04-29.61 20.034-29.61 45.99 0 20.79 12.726 34.65 27.972 34.65 22.554 0 34.272-20.79 34.272-52.164h-1.134c0 26.082-9.702 43.344-24.066 43.344-12.6 0-20.79-9.45-20.916-26.082-.378-44.1 31.374-46.242 56.952-58.086v-.882c-16.632 4.662-30.744 6.93-55.314 6.93-13.608 0-28.728-.63-26.46-10.458zm82.438 1.26v94.5h12.726v-94.5zm62.328 96.642c26.334 0 43.848-19.278 43.848-48.132 0-29.358-17.514-48.888-43.848-48.888s-43.974 19.53-43.974 48.888c0 28.854 17.64 48.132 43.974 48.132zm0-4.41c-16.506 0-27.468-17.514-27.468-43.848 0-26.586 10.962-44.352 27.468-44.352s27.342 17.766 27.342 44.352c0 26.334-10.836 43.848-27.342 43.848zm111.334-92.232v74.592l-42.84-74.592h-15.246v94.5h12.726v-74.34l43.848 74.34h14.238v-94.5z"/></g></svg>