<svg fill="none" height="102" viewBox="0 0 343 102" width="343" xmlns="http://www.w3.org/2000/svg"><g fill="#000"><path d="m121.993 45h4.646l-12.604-34.5h-5.106l-12.6044 34.5h4.4624l3.496-9.706h14.214zm-16.284-13.616 5.704-15.87 5.704 15.87zm22.551 13.616h18.354c5.796-.092 10.396-3.726 10.396-8.05 0-5.98-6.67-8.372-11.546-8.556v-.138c6.762 0 10.442-4.646 10.442-9.706s-3.266-8.694-8.096-8.694c-4.692 0-10.12 2.208-10.304 11.408h-.138l.184-3.174c.23-3.634 1.61-6.808 4.37-7.176v-.322h-13.662v.322c2.53.092 4.278 2.714 4.6 6.716v20.332c-.322 4.002-2.07 6.624-4.6 6.716zm10.212-24.334c0-4.462 3.266-7.452 7.268-7.452 3.956 0 6.072 2.346 6.072 6.118 0 4.6-2.622 7.866-6.578 7.866-4.048 0-6.762-2.622-6.762-6.532zm6.762 21.252c-7.682 0-7.728-8.97-7.728-19.136h.138c2.438 8.188 14.076 4.554 14.076 12.972 0 4.37-2.668 6.164-6.486 6.164zm29.881 3.864c9.614 0 16.008-7.038 16.008-17.572 0-10.718-6.394-17.848-16.008-17.848s-16.054 7.13-16.054 17.848c0 10.534 6.44 17.572 16.054 17.572zm0-3.91c-6.854 0-11.408-5.474-11.408-13.708 0-8.326 4.554-13.892 11.408-13.892s11.362 5.566 11.362 13.892c0 8.234-4.508 13.708-11.362 13.708zm41.278-31.418v19.366c0 7.544-3.358 11.868-9.2 11.868h-2.576v-2.622h-3.496v-2.208h-3.036v-26.266h-4.646v27.6h2.944v3.036h3.496v2.208h2.392v2.162h4.922c8.878 0 13.846-5.29 13.846-14.582v-20.562zm32.645.046h-27.094v3.91h11.224v30.59h4.646v-30.59h11.224z"/><path d="m50.2253 60.41v-3.91h-21.85v34.5h4.646v-14.766h15.64v-3.91h-15.64v-11.914zm2.7474 24.978v-23.184h4.646v-2.576h2.576v-3.312h17.802v4.37h-15.916v4.462h-4.462v20.24zm31.786-22.724v23.184h-4.646v2.576h-2.576v3.312h-17.802v-4.37h15.916v-4.462h4.462v-20.24zm8.3483 13.386v-19.458h-4.646v20.562c0 9.292 4.784 14.536 13.294 14.536 8.878 0 13.846-5.244 13.846-14.536v-20.562h-4.646v19.366c0 7.544-3.312 11.73-9.154 11.73-5.566 0-8.694-4.14-8.694-11.638zm43.768-20.792v-.092c-4.232 0-6.44 2.438-8.326 4.692-1.38-2.116-3.082-3.358-5.014-3.358-2.346 0-4.692 2.024-4.692 4.508 0 2.254 1.472 3.312 3.772 3.312 1.426 0 2.576-.506 3.588-1.288 1.978 5.566 1.012 17.066-5.75 27.968h8.418c2.3-4.876 3.22-10.35 3.22-15.686 0-6.164-1.242-11.592-3.266-14.996 2.024-2.438 4.094-5.06 8.05-5.06zm8.648 23.874c1.058-5.106 3.542-10.994 3.542-14.076 0-6.21-4.784-8.418-9.43-8.418-6.118 0-9.2 3.818-6.9 8.97l5.75.092c-1.84-4.876-1.288-8.142 2.254-8.142 3.496 0 7.406 2.714 7.406 7.498 0 4.324-3.772 8.096-6.072 12.65-.69-.276-1.426-.506-2.208-.69v.276c.69.23 1.38.46 2.07.736-.966 1.932-1.61 4.002-1.61 6.302 0 4.508 2.53 7.36 6.072 7.36 3.128 0 5.566-2.346 5.566-5.06s-2.484-5.474-6.44-7.498zm-22.172-15.594c-1.564 0-2.576-.874-2.576-2.024 0-1.058.828-1.978 1.978-1.978 1.38 0 2.53 1.104 3.266 2.99-.782.598-1.61 1.012-2.668 1.012zm25.392 25.024c-2.208 0-3.726-1.932-3.726-5.382 0-1.104.138-2.3.414-3.542 3.634 1.932 5.796 4.278 5.796 6.44 0 1.472-.92 2.484-2.484 2.484zm16.032-32.062h-10.074v34.5h10.074c10.58 0 16.606-6.118 16.606-16.974 0-11.224-6.026-17.526-16.606-17.526zm0 30.59h-5.428v-26.45h5.428c7.636.276 11.96 4.416 11.96 13.34 0 8.832-4.324 13.11-11.96 13.11zm34.612-28.014c-2.898 0-7.13-1.886-9.982-1.886-1.242 0-2.07.552-2.07 1.426 0 2.438 6.762 3.22 6.762 5.474 0 3.036-7.774 1.978-7.774 6.072 0 2.852 6.302 1.426 6.302 3.818 0 2.3-8.05.414-8.05 4.048 0 3.45 6.302 3.266 6.302 5.658 0 2.944-7.176-.828-7.176 4.324 0 2.162 2.07 3.588 5.152 3.588 3.358 0 5.612-1.656 5.612-4.14 0-3.266-2.07-5.244-2.07-7.59 0-2.162 2.806-3.634 7.038-3.634 4.186 0 6.946 1.472 6.946 3.634 0 2.346-2.024 4.324-2.024 7.59 0 2.484 2.392 4.14 5.98 4.14 3.082 0 5.152-1.426 5.152-3.588 0-5.152-7.36-1.38-7.36-4.324 0-2.392 6.072-2.392 6.072-5.658 0-3.496-8.05-1.748-8.05-4.048 0-2.392 6.302-1.058 6.302-3.818 0-4.002-7.682-2.944-7.682-5.842 0-2.346 6.67-3.174 6.67-5.704 0-.874-.828-1.426-2.07-1.426-2.852 0-7.084 1.886-9.982 1.886zm0 1.886c2.07 0 3.45.644 3.45 1.748 0 1.38-2.208 1.38-2.208 2.99 0 1.564 3.496 2.622 3.496 4.784 0 1.932-1.886 3.818-4.738 3.818-2.944 0-4.922-2.024-4.922-4.14 0-2.07 3.68-2.898 3.68-4.462 0-1.61-2.668-1.61-2.668-2.99 0-1.104 1.564-1.748 3.91-1.748zm17.088-4.922c-.322.92-.506 1.748-.506 2.484 0 3.312 1.472 5.152 5.198 5.198 2.07 0 5.842-.69 9.43-1.794l.092.23c-4.922 1.84-10.81 7.314-10.81 16.79 0 7.59 4.646 12.65 10.212 12.65 8.234 0 12.512-7.59 12.512-19.044h-.414c0 9.522-3.542 15.824-8.786 15.824-4.6 0-7.59-3.45-7.636-9.522-.138-16.1 11.454-16.882 20.792-21.206v-.322c-6.072 1.702-11.224 2.53-20.194 2.53-4.968 0-10.488-.23-9.66-3.818zm30.097.46v34.5h4.646v-34.5zm22.754 35.282c9.614 0 16.008-7.038 16.008-17.572 0-10.718-6.394-17.848-16.008-17.848s-16.054 7.13-16.054 17.848c0 10.534 6.44 17.572 16.054 17.572zm0-1.61c-6.026 0-10.028-6.394-10.028-16.008 0-9.706 4.002-16.192 10.028-16.192s9.982 6.486 9.982 16.192c0 9.614-3.956 16.008-9.982 16.008zm40.646-33.672v27.232l-15.64-27.232h-5.566v34.5h4.646v-27.14l16.008 27.14h5.198v-34.5z"/></g></svg>