<svg fill="none" height="125" viewBox="0 0 945 125" width="945" xmlns="http://www.w3.org/2000/svg"><path d="m61.426 15.5v39.564h-47.88v-39.564h-12.726v94.5h12.726v-44.226h47.88v44.226h12.726v-94.5zm23.5456 79.128v-63.504h12.726v-7.056h7.0564v-9.072h48.762v11.97h-43.596v12.222h-12.2224v55.44zm87.0664-62.244v63.504h-12.726v7.056h-7.056v9.072h-48.762v-11.97h43.596v-12.222h12.222v-55.44zm67.747-1.512-24.444 78.876h-14.238l-25.704-94.5h13.23l20.034 80.514 22.932-80.514h16.632l22.68 79.632 19.782-79.632h12.978l-25.704 94.5h-13.734zm108.962-15.372v94.5h12.726v-94.5zm71.841 26.082 33.264-27.09v-1.386l-2.898 2.394h-63.756l16.506-13.48201v-1.385994l-33.264 26.964004v1.512l3.528-2.898h28.98v88.704l-9.198 7.434v1.764l32.508-26.334v-1.512l-10.584 8.442v-78.498h22.05l-17.136 13.86zm134.578-10.71-24.444 78.876h-14.238l-25.704-94.5h13.23l20.034 80.514 22.932-80.514h16.632l22.68 79.632 19.782-79.632h12.978l-25.704 94.5h-13.734zm109.906 81.27c26.334 0 43.848-19.278 43.848-48.132 0-29.358-17.514-48.888-43.848-48.888s-43.974 19.53-43.974 48.888c0 28.854 17.64 48.132 43.974 48.132zm29.358-19.152c-13.23 13.356-36.288 7.812-51.408-7.056-15.372-14.994-20.664-38.556-7.434-51.786s36.288-7.56 51.534 7.686c15.12 15.12 20.412 37.926 7.308 51.156zm92.488 17.01-22.176-40.95c13.23-3.528 19.278-12.096 19.278-26.208 0-18.648-12.222-27.342-36.036-27.342h-29.484v94.5h12.726v-39.06h16.758c1.638 0 3.15 0 4.662-.126l21.546 39.186zm-40.824-49.77h-14.868v-34.02h14.868c18.27 0 25.578 4.914 25.578 16.632 0 12.222-7.308 17.388-25.578 17.388zm113.245 39.06v-6.174h-5.166v-6.552h-5.166v-6.804h-6.3v-8.316h-7.182v-6.048h-7.056v-18.144h8.316v-7.686h8.568v-7.686h8.442v-5.544h8.568v-10.71h-12.852v5.544h-8.568v7.686h-8.442v7.686h-8.568v7.812h-8.316v7.686h-10.206v-36.54h-12.726v94.5h12.726v-46.494h10.206v5.418h7.056v7.182h7.182v7.308h5.04v7.056h5.166v6.804h5.166v6.552h5.544v6.174h14.112v-10.71zm11.404-4.536c0 10.836 7.56 16.632 18.27 16.632 14.238 0 10.584-16.254 21.798-16.254 7.56 0 4.41 16.632 20.034 16.632 9.324 0 13.356-7.812 13.356-14.868 0-17.136-9.198-16.128-9.198-24.822 0-6.93 9.072-7.686 9.072-18.144 0-6.048-3.402-9.576-10.584-9.576-15.624 0-26.334 13.608-33.516 13.608-2.142 0-3.402-.882-3.402-3.78 0-5.922 7.56-9.324 7.56-17.01 0-7.056-12.852-7.308-12.852-11.718 0-2.016 5.292-4.788 17.766-4.788 9.45 0 12.348 1.008 12.348 3.78 0 2.52-4.284 5.166-4.284 8.82 0 4.41 2.394 8.064 9.45 8.064 6.678 0 11.466-6.552 11.466-13.104 0-11.088-13.104-13.986-23.184-13.986-19.152 0-39.438 2.394-39.438 13.104 0 13.86 16.884 9.828 16.884 17.01 0 7.686-10.206 15.12-10.206 20.916 0 4.662 1.89 7.182 8.568 7.182 9.198 0 22.05-16.38 33.138-16.38 7.308 0 8.82 2.394 8.82 6.048 0 7.434-12.726 4.284-12.726 13.104s6.678 8.568 6.678 15.246c0 2.016-1.512 4.662-4.284 4.662-6.174 0-5.67-20.16-12.852-20.16-12.348 0-8.946 28.98-16.128 28.98-2.772 0-3.528-2.142-3.528-5.418 0-3.528.882-8.19.882-12.222 0-3.78-2.772-5.544-6.426-5.544-5.544 0-13.482 4.662-13.482 13.986z" fill="#000"/></svg>