<svg fill="none" height="82" viewBox="0 0 165 82" width="165" xmlns="http://www.w3.org/2000/svg"><path d="m25.346 5.5v14.444h-17.48v-14.444h-4.646v34.5h4.646v-16.146h17.48v16.146h4.646v-34.5zm7.6913 28.888v-23.184h4.646v-2.576h2.576v-3.312h17.802v4.37h-15.916v4.462h-4.462v20.24zm31.786-22.724v23.184h-4.646v2.576h-2.576v3.312h-17.802v-4.37h15.916v-4.462h4.462v-20.24zm23.8282-.552-8.924 28.796h-5.198l-9.384-34.5h4.83l7.314 29.394 8.372-29.394h6.072l8.2805 29.072 7.222-29.072h4.738l-9.384 34.5h-5.0145zm37.9705-5.612v34.5h4.646v-34.5zm25.323 9.522 12.144-9.89v-.506l-1.058.874h-23.276l6.026-4.922002v-.5059994l-12.144 9.8440014v.552l1.288-1.058h10.58v32.384l-3.358 2.714v.644l11.868-9.614v-.552l-3.864 3.082v-28.658h8.05l-6.256 5.06zm-127.979 37.09-8.924 28.796h-5.198l-9.384-34.5h4.83l7.314 29.394 8.372-29.394h6.072l8.28 29.072 7.222-29.072h4.738l-9.384 34.5h-5.014zm39.22 29.67c9.614 0 16.008-7.038 16.008-17.572 0-10.718-6.394-17.848-16.008-17.848s-16.054 7.13-16.054 17.848c0 10.534 6.44 17.572 16.054 17.572zm10.718-6.992c-4.83 4.876-13.248 2.852-18.768-2.576-5.612-5.474-7.544-14.076-2.714-18.906s13.248-2.76 18.814 2.806c5.52 5.52 7.452 13.846 2.668 18.676zm32.86 6.21-8.0956-14.95c4.8296-1.288 7.0376-4.416 7.0376-9.568 0-6.808-4.462-9.982-13.1556-9.982h-10.764v34.5h4.646v-14.26h6.118c.598 0 1.15 0 1.702-.046l7.8656 14.306zm-14.9036-18.17h-5.428v-12.42h5.428c6.67 0 9.3376 1.794 9.3376 6.072 0 4.462-2.6676 6.348-9.3376 6.348zm40.4386 14.26v-2.254h-1.886v-2.392h-1.886v-2.484h-2.3v-3.036h-2.622v-2.208h-2.576v-6.624h3.036v-2.806h3.128v-2.806h3.082v-2.024h3.128v-3.91h-4.692v2.024h-3.128v2.806h-3.082v2.806h-3.128v2.852h-3.036v2.806h-3.726v-13.34h-4.646v34.5h4.646v-16.974h3.726v1.978h2.576v2.622h2.622v2.668h1.84v2.576h1.886v2.484h1.886v2.392h2.024v2.254h5.152v-3.91zm3.259-1.656c0 3.956 2.76 6.072 6.67 6.072 5.198 0 3.864-5.934 7.958-5.934 2.76 0 1.61 6.072 7.314 6.072 3.404 0 4.876-2.852 4.876-5.428 0-6.256-3.358-5.888-3.358-9.062 0-2.53 3.312-2.806 3.312-6.624 0-2.208-1.242-3.496-3.864-3.496-5.704 0-9.614 4.968-12.236 4.968-.782 0-1.242-.322-1.242-1.38 0-2.162 2.76-3.404 2.76-6.21 0-2.576-4.692-2.668-4.692-4.278 0-.736 1.932-1.748 6.486-1.748 3.45 0 4.508.368 4.508 1.38 0 .92-1.564 1.886-1.564 3.22 0 1.61.874 2.944 3.45 2.944 2.438 0 4.186-2.392 4.186-4.784 0-4.048-4.784-5.106-8.464-5.106-6.992 0-14.398.874-14.398 4.784 0 5.06 6.164 3.588 6.164 6.21 0 2.806-3.726 5.52-3.726 7.636 0 1.702.69 2.622 3.128 2.622 3.358 0 8.05-5.98 12.098-5.98 2.668 0 3.22.874 3.22 2.208 0 2.714-4.646 1.564-4.646 4.784s2.438 3.128 2.438 5.566c0 .736-.552 1.702-1.564 1.702-2.254 0-2.07-7.36-4.692-7.36-4.508 0-3.266 10.58-5.888 10.58-1.012 0-1.288-.782-1.288-1.978 0-1.288.322-2.99.322-4.462 0-1.38-1.012-2.024-2.346-2.024-2.024 0-4.922 1.702-4.922 5.106z" fill="#000"/></svg>