<svg fill="none" height="207" viewBox="0 0 552 207" width="552" xmlns="http://www.w3.org/2000/svg"><path d="m79.152 1.49999-26.586 80.26201-26.46-80.26201h-20.286v94.50001h12.726v-80.136l26.838 78.75h13.986l27.216-79.884v81.27h12.726v-94.50001zm104.433 94.50001h13.104l-34.524-94.374h-18.522v13.356h-4.788v8.694h-4.158v8.946h-3.402v8.568h-4.032v9.072h-3.906v8.82h-3.528v8.568h-3.654v8.694h-4.158v8.82h-2.646v10.71h12.726v-8.82h2.772v-8.694h4.158v-8.568h3.654v-8.82h38.304zm-43.47-45.738v-6.93h3.906v-8.946h3.402v-8.694h4.158v-9.45h3.402l12.222 34.02zm140.167 45.738-39.69-56.574 34.902-37.8h-15.372l-40.572 43.218v-43.34401h-12.726v94.50001h12.726v-33.894l11.97-12.978 33.768 46.872zm4.357-94.50001v94.50001h12.726v-94.50001zm96.135 20.91601c0 24.948-18.9 18.648-18.9 42.84 0 11.844 12.222 10.962 12.222 22.05 0 6.174-4.41 10.332-11.088 10.332-8.946 0-14.994-6.174-14.994-15.498 0-13.986 8.19-23.562 8.19-30.114 0-7.308-8.442-8.316-8.442-13.482 0-4.284 2.898-5.67 5.544-5.67 8.946 0 18.648-2.268 18.648-9.702 0-6.93-4.158-11.466-9.702-11.466-8.82 0-11.466 13.986-22.806 13.986-7.812 0-9.198-3.402-13.482-3.402-1.26 0-2.016 1.134-2.016 2.898 0 6.174 17.514 7.308 17.514 18.648 0 12.222-21.042 1.26-21.042 13.104 0 12.726 14.364 13.608 14.364 30.618 0 6.174-4.41 10.206-11.088 10.206-9.324 0-15.624-6.174-15.624-15.498 0-32.004 18.144-32.508 18.144-43.47 0-7.056-18.018.126-18.018-27.09 0-6.552 3.15-10.962005 7.812-10.962005 9.45 0 5.922 16.002005 15.624 16.002005 9.324 0 12.348-15.624 26.712-16.002005 13.482-.378003 22.428 8.315995 22.428 21.672005zm49.421 25.2v10.71h26.46v2.142c0 17.892-12.852 26.964-28.854 26.964-16.758 0-27.972-14.994-27.972-37.548 0-22.806 11.718-38.052 29.232-38.052 10.458 0 18.648 5.292 24.192 15.372l11.718-5.418c-7.686-13.608-20.034-20.664-35.91-20.664-25.074 0-41.958 19.53-41.958 48.888 0 28.854 16.38 48.132 40.95 48.132 13.23 0 23.184-5.04 29.61-12.348l2.016 10.206h7.686v-48.384zm-342.223 110.898c8.064-6.678 15.12-14.742 15.12-28.35 0-13.23-8.064-20.286-20.538-20.286-13.356 0-21.168 5.292-21.168 12.474 0 7.056 8.82 10.71 19.152 10.962v-.378c-4.536-3.402-6.3-7.182-6.3-10.332 0-5.922 5.04-9.954 11.34-9.954 7.434 0 14.994 4.914 14.994 17.514 0 12.348-7.182 19.656-15.372 26.208-9.072-6.552-22.932-11.088-43.344-10.71 2.52-4.284 4.032-9.45 4.032-15.876 0-13.23-8.064-20.286-20.538-20.286-12.6 0-21.168 5.04-21.168 12.474 0 6.426 7.56 10.71 19.152 10.962v-.378c-3.906-2.898-6.3-6.804-6.3-10.332 0-5.796 4.788-9.954 11.34-9.954 9.954 0 14.994 7.434 14.994 17.514 0 6.426-2.016 11.592-5.04 16.002-4.914.252-10.08.756-15.624 1.512v.63c5.418-.756 10.458-1.26 14.994-1.386-4.032 5.544-9.828 10.08-15.498 14.616-5.796-2.772-13.104-4.158-21.42-4.158v19.908c2.52-.504 5.04-.756 7.308-.882-2.016 3.402-3.15 7.308-3.15 11.97 0 10.08 4.284 17.766 13.986 17.766 10.332 0 19.278-8.946 19.278-21.672 0-9.324-4.788-16.884-13.104-21.546 5.922-4.536 12.222-9.324 16.254-16.002 19.908 0 32.382 5.67 39.69 12.978-9.45 7.308-18.9 14.49-18.9 27.972 0 11.466 6.426 18.27 17.01 18.27 11.844 0 21.294-9.576 21.294-22.176 0-7.434-3.276-17.262-12.474-25.074zm-11.466 40.32c-6.048 0-11.592-4.032-11.592-12.6 0-10.962 9.198-17.01 18.522-24.066 5.292 6.426 7.182 13.608 7.182 19.026 0 11.214-7.182 17.64-14.112 17.64zm-59.598-1.26c-4.662 0-8.568-6.048-8.568-12.852 0-3.276.882-6.174 2.394-8.694 9.072.252 14.616 4.284 14.616 10.962 0 5.166-3.654 10.584-8.442 10.584zm94.412-88.074v94.5h12.726v-94.5zm97.773 45.99h-.882c-2.142 0-3.906-1.638-3.906-3.654s-1.764-3.528-3.906-3.528h-20.034c-2.142 0-3.906 1.764-3.906 3.906v.504c0 2.142-1.764 3.906-3.906 3.906h-16.128c-2.142 0-3.906-1.764-3.906-3.906v-20.412c0-2.142 1.764-3.906 3.906-3.906h38.682c2.142 0 3.906 1.512 3.906 3.528s1.764 3.654 3.906 3.654h7.434c2.142 0 3.906-1.638 3.906-3.654s-1.764-3.528-3.906-3.528h-4.788c-2.142 0-3.906-1.764-3.906-3.906v-11.088c0-2.142-1.764-3.906-3.906-3.906h-43.974c-2.142 0-3.906 1.764-3.906 3.906v11.088c0 2.142-1.764 3.906-3.906 3.906h-7.308c-2.142 0-3.906 1.764-3.906 3.906v20.79c0 2.142 1.764 3.906 3.906 3.906h6.174c2.142 0 3.906 1.512 3.906 3.402s1.764 3.402 3.906 3.402h24.444c2.142 0 3.906-1.764 3.906-3.906v-.504c0-2.142 1.764-3.906 3.906-3.906h13.986c2.142 0 3.906 1.764 3.906 3.906v21.798c0 2.142-1.764 3.906-3.906 3.906h-39.942c-2.142 0-3.906 1.764-3.906 3.906v3.906c0 2.142-1.764 3.906-3.906 3.906h-5.922c-2.142 0-3.906-1.764-3.906-3.906v-7.434c0-2.142-1.008-3.906-2.268-3.906s-2.268 1.764-2.268 3.906v14.616c0 2.142 1.764 3.906 3.906 3.906h58.464c2.142 0 3.906-1.764 3.906-3.906v-3.276c0-2.142 1.764-3.906 3.906-3.906h2.142c2.142 0 3.906-1.764 3.906-3.906v-29.61c0-2.142-1.764-3.906-3.906-3.906zm81.893-45.99h-74.214v10.71h30.744v83.79h12.726v-83.79h30.744zm46.541 96.642c26.334 0 43.848-19.278 43.848-48.132 0-29.358-17.514-48.888-43.848-48.888s-43.974 19.53-43.974 48.888c0 28.854 17.64 48.132 43.974 48.132zm0-10.71c-18.774 0-31.248-14.994-31.248-37.548 0-22.806 12.474-38.052 31.248-38.052s31.122 15.246 31.122 38.052c0 22.554-12.348 37.548-31.122 37.548zm137.509-12.096c-3.024 7.434-6.426 10.206-14.238 10.206-7.308 0-16.884-9.702-24.318-20.664 22.428-.504 34.524-16.632 34.524-33.768 0-18.144-11.466-31.374-28.476-31.374-14.238 0-31.248 6.552-31.878 47.124h-.378l1.008-24.57c.504-12.222 4.41-20.034 11.97-19.656v-.882h-37.422v.882c6.93.252 11.718 7.434 12.6 18.396v55.692c-.882 10.962-5.67 18.144-12.6 18.396v.882h37.422v-.882c-6.426.252-11.844-3.15-11.844-23.814 0-10.962.378-20.16.756-30.618h.378c0 14.994 9.828 22.68 19.656 23.94 7.182 18.648 14.868 33.012 27.468 33.012 9.702 0 14.49-9.324 15.75-22.302zm-60.984-34.776c0-18.018 9.576-29.988 23.814-29.988 11.718 0 19.53 9.954 19.53 24.948s-9.072 25.074-22.68 25.074h-1.008c-3.276-5.292-5.796-10.458-7.434-14.868h-.882c1.764 4.914 3.402 9.828 5.166 14.49-10.08-1.512-16.506-9.072-16.506-19.656zm124.204-38.934-24.066 42.714-24.066-42.588h-14.112l31.878 55.188v39.06h12.726v-39.06l31.374-55.314z" fill="#000"/></svg>