<svg fill="none" height="81" viewBox="0 0 203 81" width="203" xmlns="http://www.w3.org/2000/svg"><path d="m44.6818.499997-9.706 29.302003-9.66-29.302003h-7.406v34.500003h4.646v-29.256l9.798 28.75h5.106l9.936-29.164v29.67h4.646v-34.500003zm38.1265 34.500003h4.784l-12.604-34.454001h-6.762v4.876001h-1.748v3.174h-1.518v3.266h-1.242v3.128h-1.472v3.312h-1.426v3.22h-1.288v3.128h-1.334v3.174h-1.518v3.22h-.966v3.91h4.646v-3.22h1.012v-3.174h1.518v-3.128h1.334v-3.22h13.984zm-15.87-16.698v-2.53h1.426v-3.266h1.242v-3.174h1.518v-3.45h1.242l4.462 12.42zm51.1717 16.698-14.49-20.654 12.742-13.800001h-5.612l-14.8116 15.778001v-15.824003h-4.646v34.500003h4.646v-12.374l4.3696-4.738 12.328 17.112zm1.591-34.500003v34.500003h4.646v-34.500003zm35.097 7.636003c0 9.108-6.9 6.808-6.9 15.64 0 4.324 4.462 4.002 4.462 8.05 0 2.254-1.61 3.772-4.048 3.772-3.266 0-5.474-2.254-5.474-5.658 0-5.106 2.99-8.602 2.99-10.994 0-2.668-3.082-3.036-3.082-4.922 0-1.564 1.058-2.07 2.024-2.07 3.266 0 6.808-.828 6.808-3.542 0-2.53-1.518-4.186-3.542-4.186-3.22 0-4.186 5.106-8.326 5.106-2.852 0-3.358-1.242-4.922-1.242-.46 0-.736.414-.736 1.058 0 2.254 6.394 2.668 6.394 6.808 0 4.462-7.682.46-7.682 4.784 0 4.646 5.244 4.968 5.244 11.178 0 2.254-1.61 3.726-4.048 3.726-3.404 0-5.704-2.254-5.704-5.658 0-11.684 6.624-11.868 6.624-15.87 0-2.576-6.578.046-6.578-9.89 0-2.392 1.15-4.002002 2.852-4.002002 3.45 0 2.162 5.842002 5.704 5.842002 3.404 0 4.508-5.704001 9.752-5.842002 4.922-.1380009 8.188 3.036002 8.188 7.912002zm18.042 9.2v3.91h9.66v.782c0 6.532-4.692 9.844-10.534 9.844-6.118 0-10.212-5.474-10.212-13.708 0-8.326 4.278-13.892 10.672-13.892 3.818 0 6.808 1.932 8.832 5.612l4.278-1.978c-2.806-4.968-7.314-7.544001-13.11-7.544001-9.154 0-15.318 7.130001-15.318 17.848001 0 10.534 5.98 17.572 14.95 17.572 4.83 0 8.464-1.84 10.81-4.508l.736 3.726h2.806v-17.664zm-140.1667 46.058c2.944-2.438 5.52-5.382 5.52-10.35 0-4.83-2.944-7.406-7.498-7.406-4.876 0-7.728 1.932-7.728 4.554 0 2.576 3.22 3.91 6.992 4.002v-.138c-1.656-1.242-2.3-2.622-2.3-3.772 0-2.162 1.84-3.634 4.14-3.634 2.714 0 5.474 1.794 5.474 6.394 0 4.508-2.622 7.176-5.612 9.568-3.312-2.392-8.372-4.048-15.824-3.91.92-1.564 1.472-3.45 1.472-5.796 0-4.83-2.944-7.406-7.49801-7.406-4.6 0-7.728 1.84-7.728 4.554 0 2.346 2.76 3.91 6.992 4.002v-.138c-1.426-1.058-2.3-2.484-2.3-3.772 0-2.116 1.748-3.634 4.14001-3.634 3.634 0 5.474 2.714 5.474 6.394 0 2.346-.736 4.232-1.84 5.842-1.794.092-3.68.276-5.70401.552v.23c1.97801-.276 3.81801-.46 5.47401-.506-1.472 2.024-3.588 3.68-5.65801 5.336-2.116-1.012-4.784-1.518-7.820001-1.518v7.268c.920001-.184 1.840001-.276 2.668001-.322-.736 1.242-1.15 2.668-1.15 4.37 0 3.68 1.564 6.486 5.106 6.486 3.77201 0 7.03801-3.266 7.03801-7.912 0-3.404-1.748-6.164-4.78401-7.866 2.16201-1.656 4.46201-3.404 5.93401-5.842 7.268 0 11.822 2.07 14.49 4.738-3.45 2.668-6.9 5.29-6.9 10.212 0 4.186 2.346 6.67 6.21 6.67 4.324 0 7.774-3.496 7.774-8.096 0-2.714-1.196-6.302-4.554-9.154zm-4.186 14.72c-2.208 0-4.232-1.472-4.232-4.6 0-4.002 3.358-6.21 6.762-8.786 1.932 2.346 2.622 4.968 2.622 6.946 0 4.094-2.622 6.44-5.152 6.44zm-21.75801-.46c-1.702 0-3.128-2.208-3.128-4.692 0-1.196.322-2.254.874-3.174 3.312.092 5.336 1.564 5.336 4.002 0 1.886-1.334 3.864-3.082 3.864zm34.46801-32.154v34.5h4.646v-34.5zm35.6949 16.79h-.322c-.782 0-1.426-.598-1.426-1.334s-.644-1.288-1.426-1.288h-7.314c-.782 0-1.426.644-1.426 1.426v.184c0 .782-.644 1.426-1.426 1.426h-5.888c-.782 0-1.426-.644-1.426-1.426v-7.452c0-.782.644-1.426 1.426-1.426h14.122c.782 0 1.426.552 1.426 1.288s.644 1.334 1.426 1.334h2.714c.782 0 1.426-.598 1.426-1.334s-.644-1.288-1.426-1.288h-1.748c-.782 0-1.426-.644-1.426-1.426v-4.048c0-.782-.644-1.426-1.426-1.426h-16.054c-.782 0-1.426.644-1.426 1.426v4.048c0 .782-.644 1.426-1.426 1.426h-2.668c-.782 0-1.426.644-1.426 1.426v7.59c0 .782.644 1.426 1.426 1.426h2.254c.782 0 1.426.552 1.426 1.242s.644 1.242 1.426 1.242h8.924c.782 0 1.426-.644 1.426-1.426v-.184c0-.782.644-1.426 1.426-1.426h5.106c.782 0 1.426.644 1.426 1.426v7.958c0 .782-.644 1.426-1.426 1.426h-14.582c-.782 0-1.426.644-1.426 1.426v1.426c0 .782-.644 1.426-1.426 1.426h-2.162c-.782 0-1.426-.644-1.426-1.426v-2.714c0-.782-.368-1.426-.828-1.426s-.828.644-.828 1.426v5.336c0 .782.644 1.426 1.426 1.426h21.344c.782 0 1.426-.644 1.426-1.426v-1.196c0-.782.644-1.426 1.426-1.426h.782c.782 0 1.426-.644 1.426-1.426v-10.81c0-.782-.644-1.426-1.426-1.426zm29.8968-16.79h-27.0936v3.91h11.224v30.59h4.646v-30.59h11.2236zm16.992 35.282c9.614 0 16.008-7.038 16.008-17.572 0-10.718-6.394-17.848-16.008-17.848s-16.054 7.13-16.054 17.848c0 10.534 6.44 17.572 16.054 17.572zm0-3.91c-6.854 0-11.408-5.474-11.408-13.708 0-8.326 4.554-13.892 11.408-13.892s11.362 5.566 11.362 13.892c0 8.234-4.508 13.708-11.362 13.708zm50.201-4.416c-1.104 2.714-2.346 3.726-5.198 3.726-2.668 0-6.164-3.542-8.878-7.544 8.188-.184 12.604-6.072 12.604-12.328 0-6.624-4.186-11.454-10.396-11.454-5.198 0-11.408 2.392-11.638 17.204h-.138l.368-8.97c.184-4.462 1.61-7.314 4.37-7.176v-.322h-13.662v.322c2.53.092 4.278 2.714 4.6 6.716v20.332c-.322 4.002-2.07 6.624-4.6 6.716v.322h13.662v-.322c-2.346.092-4.324-1.15-4.324-8.694 0-4.002.138-7.36.276-11.178h.138c0 5.474 3.588 8.28 7.176 8.74 2.622 6.808 5.428 12.052 10.028 12.052 3.542 0 5.29-3.404 5.75-8.142zm-22.264-12.696c0-6.578 3.496-10.948 8.694-10.948 4.278 0 7.13 3.634 7.13 9.108s-3.312 9.154-8.28 9.154h-.368c-1.196-1.932-2.116-3.818-2.714-5.428h-.322c.644 1.794 1.242 3.588 1.886 5.29-3.68-.552-6.026-3.312-6.026-7.176zm45.345-14.214-8.786 15.594-8.786-15.548h-5.152l11.638 20.148v14.26h4.646v-14.26l11.454-20.194z" fill="#000"/></svg>