<svg fill="none" height="214" viewBox="0 0 1205 214" width="1205" xmlns="http://www.w3.org/2000/svg"><path d="m64.646 17.872-24.444 78.876h-14.238l-25.704-94.5h13.23l20.034 80.514 22.932-80.514h16.632l22.68 79.632 19.782-79.632h12.978l-25.704 94.5h-13.734zm81.305 27.468h-.378l.378 20.916c.126 7.812 1.386 22.554 1.386 25.452 0 4.284-3.78 7.182-7.686 7.182s-7.812-2.898-7.812-7.182c0-3.024 1.386-17.136 1.386-25.452v-24.822c0-8.316-1.386-29.988-1.386-33.012 0-4.28401 3.906-7.18201 7.812-7.18201s7.686 2.898 7.686 7.18201c0 9.576-.378 16.254-.378 23.94 0 8.946 4.41 24.822 22.554 24.822 18.396 0 22.806-15.876 22.806-24.822 0-8.064-.126-14.364-.126-23.94 0-4.28401 3.906-7.18201 7.812-7.18201s7.686 2.898 7.686 7.18201c0 2.898-1.386 24.444-1.386 32.256v24.822c0 7.812 1.386 23.184 1.386 26.082 0 4.284-3.78 7.182-7.686 7.182s-7.812-2.898-7.812-7.182c0-3.024 1.26-17.766 1.386-26.082l.378-20.538h-.378c0 13.608-10.836 26.334-24.066 26.334-14.364 0-23.562-13.104-23.562-25.956zm139.083 51.66h12.726l-34.524-94.50001h-13.986l-34.524 94.50001h12.222l9.576-26.586h38.934zm-44.604-37.296 15.624-43.47 15.624 43.47zm134.876-57.20401h-74.214v10.71001h30.744v83.79h12.726v-83.79h30.744zm105.723 25.45201 11.718-5.418c-7.434-13.60801-19.404-20.66401-34.776-20.66401-25.074 0-41.958 19.53001-41.958 48.88801 0 28.854 16.884 48.132 41.958 48.132 16.128 0 28.476-7.812 35.028-23.184l-11.97-3.528c-4.032 11.088-12.6 16.002-23.184 16.002-17.388 0-29.106-14.994-29.106-37.548 0-22.806 11.718-38.052 29.232-38.052 9.954 0 17.766 5.292 23.058 15.372zm30.567 69.174-12.726-10.332v-64.89l23.94-19.40401h34.398l13.23 10.71001h-58.842zm59.472-92.736 12.726 10.332v64.89l-23.94 19.404h-34.398l-13.23-10.71h58.842zm35.099 81.9v-83.79001h-12.726v94.50001h59.85v-10.71zm66.275 0v-83.79001h-12.726v94.50001h59.85v-10.71zm109.62-72.828v-10.96201h-59.85v94.50001h59.85v-11.088h-47.124v-33.264h27.342v5.544h12.978v-10.71h-9.828v-5.544h-30.492v-28.476zm21.279 36.792c0 20.664 11.97 39.06 32.886 39.06 8.946 0 30.618-4.41 31.248-48.762h1.386c1.26 46.746-19.656 59.22-39.816 59.22-23.814 0-40.572-19.908-40.572-49.644 0-28.854 16.758-48.006 44.73-48.006 10.458 0 21.294 2.268 32.382 8.19l-23.436 21.546-.756-.504c4.032-5.67 6.174-9.072 6.174-13.86 0-6.93-6.426-8.316-13.23-8.316-18.396 0-30.996 20.664-30.996 41.076zm142.404-47.75401h-74.214v10.71001h30.744v83.79h12.726v-83.79h30.744zm47.322 96.64201c26.333 0 43.843-19.278 43.843-48.132 0-29.358-17.51-48.888-43.843-48.888-26.334 0-43.974 19.53-43.974 48.888 0 28.854 17.64 48.132 43.974 48.132zm0-10.71c-18.774 0-31.248-14.994-31.248-37.548 0-22.806 12.474-38.052 31.248-38.052 18.773 0 31.123 15.246 31.123 38.052 0 22.554-12.35 37.548-31.123 37.548zm138.293-12.096c-3.03 7.434-6.43 10.206-14.24 10.206-7.31 0-16.89-9.702-24.32-20.664 22.43-.504 34.52-16.632 34.52-33.768 0-18.144-11.46-31.374007-28.47-31.374007-14.24 0-31.25 6.552007-31.88 47.124007h-.38l1.01-24.57c.5-12.222 4.41-20.034 11.97-19.65601v-.88199h-37.42v.88199c6.93.25201 11.72 7.43401 12.6 18.39601v55.692c-.88 10.962-5.67 18.144-12.6 18.396v.882h37.42v-.882c-6.43.252-11.84-3.15-11.84-23.814 0-10.962.37-20.16.75-30.618h.38c0 14.994 9.83 22.68 19.66 23.94 7.18 18.648 14.86 33.012 27.46 33.012 9.71 0 14.49-9.324 15.75-22.302zm-60.99-34.776c0-18.018 9.58-29.988 23.82-29.988 11.71 0 19.53 9.954 19.53 24.948s-9.08 25.074-22.68 25.074h-1.01c-3.28-5.292-5.8-10.458-7.44-14.868h-.88c1.77 4.914 3.4 9.828 5.17 14.49-10.08-1.512-16.51-9.072-16.51-19.656zm133.93 27.972c0-16.128-17.13-23.688-31.5-29.862-10.33-4.41-19.28-8.442-19.28-14.49 0-8.442 7.06-13.23 18.15-13.23 9.07 0 16.5 5.166 19.91 14.364l10.33-5.67c-4.79-12.47401-16.63-19.40401-30.24-19.40401-18.78 0-30.87 10.20601-30.87 23.68801 0 13.608 14.49 20.286 27.97 26.208 11.97 5.292 23.18 10.458 23.18 19.782 0 10.962-8.44 17.136-20.91 17.136-10.08 0-19.53-6.426-25.33-17.64l-9.45 7.812c6.55 13.104 19.91 20.538 34.65 20.538 20.16 0 33.39-10.332 33.39-29.232zm-1135.874 46.968v39.564h-47.88v-39.564h-12.726v94.5h12.726v-44.226h47.88v44.226h12.726v-94.5zm97.76 94.5h13.104l-34.524-94.374h-18.522v13.356h-4.788v8.694h-4.158v8.946h-3.402v8.568h-4.032v9.072h-3.906v8.82h-3.528v8.568h-3.6544v8.694h-4.158v8.82h-2.646v10.71h12.7264v-8.82h2.772v-8.694h4.158v-8.568h3.654v-8.82h38.304zm-43.47-45.738v-6.93h3.906v-8.946h3.402v-8.694h4.158v-9.45h3.402l12.222 34.02zm130.741-48.762-29.106 80.766-28.98-80.766h-12.726l34.524 94.5h13.986l34.524-94.5zm19.265 94.5h59.85v-11.088h-47.124v-33.138h41.58v-10.71h-41.58v-28.602h47.124v-10.962h-59.85zm103.215-95.76c-.882 2.52-1.386 4.788-1.386 6.804 0 9.072 4.032 14.112 14.238 14.238 5.67 0 16.002-1.89 25.83-4.914l.252.63c-13.482 5.04-29.61 20.034-29.61 45.99 0 20.79 12.726 34.65 27.972 34.65 22.554 0 34.272-20.79 34.272-52.164h-1.134c0 26.082-9.702 43.344-24.066 43.344-12.6 0-20.79-9.45-20.916-26.082-.378-44.1 31.374-46.242 56.952-58.086v-.882c-16.632 4.662-30.744 6.93-55.314 6.93-13.608 0-28.728-.63-26.46-10.458zm127.192 97.902c26.334 0 43.848-19.278 43.848-48.132 0-29.358-17.514-48.888-43.848-48.888s-43.974 19.53-43.974 48.888c0 28.854 17.64 48.132 43.974 48.132zm0-10.71c-18.774 0-31.248-14.994-31.248-37.548 0-22.806 12.474-38.052 31.248-38.052s31.122 15.246 31.122 38.052c0 22.554-12.348 37.548-31.122 37.548zm162.671-39.942h-.882c-2.142 0-3.906-1.638-3.906-3.654s-1.764-3.528-3.906-3.528h-20.034c-2.142 0-3.906 1.764-3.906 3.906v.504c0 2.142-1.764 3.906-3.906 3.906h-16.128c-2.142 0-3.906-1.764-3.906-3.906v-20.412c0-2.142 1.764-3.906 3.906-3.906h38.682c2.142 0 3.906 1.512 3.906 3.528s1.764 3.654 3.906 3.654h7.434c2.142 0 3.906-1.638 3.906-3.654s-1.764-3.528-3.906-3.528h-4.788c-2.142 0-3.906-1.764-3.906-3.906v-11.088c0-2.142-1.764-3.906-3.906-3.906h-43.974c-2.142 0-3.906 1.764-3.906 3.906v11.088c0 2.142-1.764 3.906-3.906 3.906h-7.308c-2.142 0-3.906 1.764-3.906 3.906v20.79c0 2.142 1.764 3.906 3.906 3.906h6.174c2.142 0 3.906 1.512 3.906 3.402s1.764 3.402 3.906 3.402h24.444c2.142 0 3.906-1.764 3.906-3.906v-.504c0-2.142 1.764-3.906 3.906-3.906h13.986c2.142 0 3.906 1.764 3.906 3.906v21.798c0 2.142-1.764 3.906-3.906 3.906h-39.942c-2.142 0-3.906 1.764-3.906 3.906v3.906c0 2.142-1.764 3.906-3.906 3.906h-5.922c-2.142 0-3.906-1.764-3.906-3.906v-7.434c0-2.142-1.008-3.906-2.268-3.906s-2.268 1.764-2.268 3.906v14.616c0 2.142 1.764 3.906 3.906 3.906h58.464c2.142 0 3.906-1.764 3.906-3.906v-3.276c0-2.142 1.764-3.906 3.906-3.906h2.142c2.142 0 3.906-1.764 3.906-3.906v-29.61c0-2.142-1.764-3.906-3.906-3.906zm82.546 48.51h12.726l-34.524-94.5h-13.986l-34.524 94.5h12.222l9.576-26.586h38.934zm-44.604-37.296 15.624-43.47 15.624 43.47zm122.907-57.078-24.066 42.714-24.066-42.588h-14.112l31.878 55.188v39.06h12.726v-39.06l31.374-55.314z" fill="#000"/></svg>