<svg fill="none" height="126" viewBox="0 0 296 126" width="296" xmlns="http://www.w3.org/2000/svg"><path d="m104.394 6.112-8.9243 28.796h-5.198l-9.384-34.500002h4.83l7.314 29.394002 8.3723-29.394002h6.072l8.28 29.072002 7.222-29.072002h4.738l-9.384 34.500002h-5.014zm28.778 10.028h-.138l.138 7.636c.046 2.852.506 8.234.506 9.292 0 1.564-1.38 2.622-2.806 2.622s-2.852-1.058-2.852-2.622c0-1.104.506-6.256.506-9.292v-9.062c0-3.036-.506-10.948-.506-12.052 0-1.564 1.426-2.6220023 2.852-2.6220023s2.806 1.0580023 2.806 2.6220023c0 3.496-.138 5.934-.138 8.74 0 3.266 1.61 9.062 8.234 9.062 6.716 0 8.326-5.796 8.326-9.062 0-2.944-.046-5.244-.046-8.74 0-1.564 1.426-2.6220023 2.852-2.6220023s2.806 1.0580023 2.806 2.6220023c0 1.058-.506 8.924-.506 11.776v9.062c0 2.852.506 8.464.506 9.522 0 1.564-1.38 2.622-2.806 2.622s-2.852-1.058-2.852-2.622c0-1.104.46-6.486.506-9.522l.138-7.498h-.138c0 4.968-3.956 9.614-8.786 9.614-5.244 0-8.602-4.784-8.602-9.476zm49.871 18.86h4.646l-12.604-34.500003h-5.106l-12.604 34.500003h4.462l3.496-9.706h14.214zm-16.284-13.616 5.704-15.87 5.704 15.87zm48.336-20.884003h-27.094v3.910003h11.224v30.59h4.646v-30.59h11.224zm-181.5902 62.434003c0 7.544 4.37 14.26 12.006 14.26 3.266 0 11.178-1.61 11.408-17.802h.506c.46 17.066-7.176 21.62-14.536 21.62-8.694 0-14.812-7.268-14.812-18.124 0-10.534 6.118-17.526 16.33-17.526 3.818 0 7.774.828 11.822 2.99l-8.556 7.866-.276-.184c1.472-2.07 2.254-3.312 2.254-5.06 0-2.53-2.346-3.036-4.83-3.036-6.716 0-11.316 7.544-11.316 14.996zm57.2484 9.522c-1.104 2.714-2.346 3.726-5.198 3.726-2.668 0-6.164-3.542-8.878-7.544 8.188-.184 12.604-6.072 12.604-12.328 0-6.624-4.186-11.454-10.396-11.454-5.198 0-11.408 2.392-11.638 17.204h-.138l.368-8.97c.184-4.462 1.61-7.314 4.37-7.176v-.322h-13.662v.322c2.53.092 4.278 2.714 4.6 6.716v20.332c-.322 4.002-2.07 6.624-4.6 6.716v.322h13.662v-.322c-2.346.092-4.324-1.15-4.324-8.694 0-4.002.138-7.36.276-11.178h.138c0 5.474 3.588 8.28 7.176 8.74 2.622 6.808 5.428 12.052 10.028 12.052 3.542 0 5.29-3.404 5.75-8.142zm-22.264-12.696c0-6.578 3.496-10.948 8.694-10.948 4.278 0 7.13 3.634 7.13 9.108s-3.312 9.154-8.28 9.154h-.368c-1.196-1.932-2.116-3.818-2.714-5.428h-.322c.644 1.794 1.242 3.588 1.886 5.29-3.68-.552-6.026-3.312-6.026-7.176zm24.7601 20.24h21.8497v-4.048h-17.2037v-12.098h15.1797v-3.91h-15.1797v-10.442h17.2037v-4.002h-21.8497zm50.1397 0h4.646l-12.604-34.5h-5.106l-12.604 34.5h4.462l3.496-9.706h14.214zm-16.284-13.616 5.704-15.87 5.704 15.87zm48.336-20.884h-27.094v3.91h11.224v30.59h4.646v-30.59h11.224zm16.371 35.282c9.614 0 16.008-7.038 16.008-17.572 0-10.718-6.394-17.848-16.008-17.848s-16.054 7.13-16.054 17.848c0 10.534 6.44 17.572 16.054 17.572zm0-3.91c-6.854 0-11.408-5.474-11.408-13.708 0-8.326 4.554-13.892 11.408-13.892s11.362 5.566 11.362 13.892c0 8.234-4.508 13.708-11.362 13.708zm40.658-.782v-2.254h-1.886v-2.392h-1.886v-2.484h-2.3v-3.91c4.554-1.196 7.038-4.094 7.038-10.074v-3.772h-2.944v-2.622h-4.232v-3.082h-16.744v34.5h4.646v-14.26h5.658 1.426v4.554h2.3v2.576h1.886v2.484h1.886v2.392h2.024v2.254h5.152v-3.91zm-13.34-14.26h-4.968v-12.42h11.178v3.082h3.45v2.668c0 5.842-3.128 6.67-9.66 6.67zm32.364-4.692 14.674-11.914v-.506l-.966.782h-21.298l-4.646 3.634v12.052h19.366v14.904h-16.284v-7.682l6.394-5.198v-.506l-13.018 10.534v.552l1.978-1.61v4.14l4.646 3.68h12.19l8.51-6.946v-12.466h-19.136v-11.178h16.468l-8.878 7.222zm-228.441 33.362v14.444h-17.47997v-14.444h-4.645999v34.5h4.645999v-16.146h17.47997v16.146h4.646v-34.5zm34.7853 34.5h4.784l-12.604-34.454h-6.762v4.876h-1.748v3.174h-1.518v3.266h-1.242v3.128h-1.472v3.312h-1.426v3.22h-1.288v3.128h-1.334v3.174h-1.518v3.22h-.966v3.91h4.646v-3.22h1.012v-3.174h1.518v-3.128h1.334v-3.22h13.984zm-15.87-16.698v-2.53h1.426v-3.266h1.242v-3.174h1.518v-3.45h1.242l4.462 12.42zm46.8261-17.802-10.626 29.486-10.58-29.486h-4.646l12.604 34.5h5.106l12.604-34.5zm6.1287 34.5h21.8499v-4.048h-17.2039v-12.098h15.1799v-3.91h-15.1799v-10.442h17.2039v-4.002h-21.8499zm35.8719-34.96c-.322.92-.506 1.748-.506 2.484 0 3.312 1.472 5.152 5.198 5.198 2.07 0 5.842-.69 9.43-1.794l.092.23c-4.922 1.84-10.81 7.314-10.81 16.79 0 7.59 4.646 12.65 10.212 12.65 8.234 0 12.512-7.59 12.512-19.044h-.414c0 9.522-3.542 15.824-8.786 15.824-4.6 0-7.59-3.45-7.636-9.522-.138-16.1 11.454-16.882 20.792-21.206v-.322c-6.072 1.702-11.224 2.53-20.194 2.53-4.968 0-10.488-.23-9.66-3.818zm45.531 35.742c9.614 0 16.008-7.038 16.008-17.572 0-10.718-6.394-17.848-16.008-17.848s-16.054 7.13-16.054 17.848c0 10.534 6.44 17.572 16.054 17.572zm0-3.91c-6.854 0-11.408-5.474-11.408-13.708 0-8.326 4.554-13.892 11.408-13.892s11.362 5.566 11.362 13.892c0 8.234-4.508 13.708-11.362 13.708zm57.578-14.582h-.322c-.782 0-1.426-.598-1.426-1.334s-.644-1.288-1.426-1.288h-7.314c-.782 0-1.426.644-1.426 1.426v.184c0 .782-.644 1.426-1.426 1.426h-5.888c-.782 0-1.426-.644-1.426-1.426v-7.452c0-.782.644-1.426 1.426-1.426h14.122c.782 0 1.426.552 1.426 1.288s.644 1.334 1.426 1.334h2.714c.782 0 1.426-.598 1.426-1.334s-.644-1.288-1.426-1.288h-1.748c-.782 0-1.426-.644-1.426-1.426v-4.048c0-.782-.644-1.426-1.426-1.426h-16.054c-.782 0-1.426.644-1.426 1.426v4.048c0 .782-.644 1.426-1.426 1.426h-2.668c-.782 0-1.426.644-1.426 1.426v7.59c0 .782.644 1.426 1.426 1.426h2.254c.782 0 1.426.552 1.426 1.242s.644 1.242 1.426 1.242h8.924c.782 0 1.426-.644 1.426-1.426v-.184c0-.782.644-1.426 1.426-1.426h5.106c.782 0 1.426.644 1.426 1.426v7.958c0 .782-.644 1.426-1.426 1.426h-14.582c-.782 0-1.426.644-1.426 1.426v1.426c0 .782-.644 1.426-1.426 1.426h-2.162c-.782 0-1.426-.644-1.426-1.426v-2.714c0-.782-.368-1.426-.828-1.426s-.828.644-.828 1.426v5.336c0 .782.644 1.426 1.426 1.426h21.344c.782 0 1.426-.644 1.426-1.426v-1.196c0-.782.644-1.426 1.426-1.426h.782c.782 0 1.426-.644 1.426-1.426v-10.81c0-.782-.644-1.426-1.426-1.426zm29.231 17.71h4.646l-12.604-34.5h-5.106l-12.604 34.5h4.462l3.496-9.706h14.214zm-16.284-13.616 5.704-15.87 5.704 15.87zm43.966-20.838-8.786 15.594-8.786-15.548h-5.152l11.638 20.148v14.26h4.646v-14.26l11.454-20.194z" fill="#000"/></svg>