<svg width="294" height="126" viewBox="0 0 294 126" fill="none" xmlns="http://www.w3.org/2000/svg">
<path d="M103.149 6.05339L94.2528 34.7612H89.0707L79.7156 0.366871H84.5307L91.8223 29.6707L100.169 0.366871H106.222L114.477 29.3498L121.677 0.366871H126.4L117.045 34.7612H112.046L103.149 6.05339ZM131.839 16.0507H131.702L131.839 23.6632C131.885 26.5065 132.344 31.8721 132.344 32.9268C132.344 34.4861 130.968 35.5408 129.546 35.5408C128.125 35.5408 126.703 34.4861 126.703 32.9268C126.703 31.826 127.208 26.6899 127.208 23.6632V14.629C127.208 11.6023 126.703 3.71457 126.703 2.61396C126.703 1.05476 128.125 0 129.546 0C130.968 0 132.344 1.05476 132.344 2.61396C132.344 6.09926 132.206 8.52976 132.206 11.3272C132.206 14.5832 133.811 20.3614 140.415 20.3614C147.11 20.3614 148.715 14.5832 148.715 11.3272C148.715 8.39219 148.67 6.09926 148.67 2.61396C148.67 1.05476 150.091 0 151.513 0C152.934 0 154.31 1.05476 154.31 2.61396C154.31 3.66873 153.806 11.5106 153.806 14.3539V23.3881C153.806 26.2313 154.31 31.826 154.31 32.8808C154.31 34.44 152.934 35.4947 151.513 35.4947C150.091 35.4947 148.67 34.44 148.67 32.8808C148.67 31.7802 149.128 26.4148 149.174 23.3881L149.311 15.9131H149.174C149.174 20.8658 145.23 25.4976 140.415 25.4976C135.187 25.4976 131.839 20.7282 131.839 16.0507V16.0507ZM181.558 34.8528H186.19L173.624 0.458589H168.534L155.969 34.8528H160.417L163.902 25.1766H178.072L181.558 34.8528ZM165.324 21.2786L171.01 5.45722L176.697 21.2786H165.324ZM213.511 0.458589H186.501V4.3566H197.69V34.8528H202.322V4.3566H213.511V0.458589ZM29.7771 54.6832L34.0419 52.7112C31.3364 47.7586 26.9797 45.1905 21.3849 45.1905C12.259 45.1905 6.1139 52.2986 6.1139 62.9838C6.1139 73.4854 12.259 80.5019 21.3849 80.5019C27.2549 80.5019 31.7492 77.6586 34.1338 72.0637L29.7771 70.7796C28.3095 74.8153 25.1912 76.6039 21.3391 76.6039C15.0105 76.6039 10.7457 71.1466 10.7457 62.938C10.7457 54.6374 15.0105 49.0885 21.3849 49.0885C25.0078 49.0885 27.851 51.0145 29.7771 54.6832V54.6832ZM40.0003 79.8597L35.3687 76.0994V52.4821L44.0818 45.4198H56.6014L61.4165 49.3176H40.0003V79.8597ZM61.6458 46.1075L66.2776 49.8681V73.4854L57.5642 80.5477H45.045L40.2296 76.6497H61.6458V46.1075ZM73.5186 75.9159V45.4198H68.8868V79.8139H90.6698V75.9159H73.5186ZM96.7381 75.9159V45.4198H92.1065V79.8139H113.889V75.9159H96.7381ZM135.733 49.4095V45.4198H113.95V79.8139H135.733V75.7785H118.582V63.6715H128.534V65.6894H133.257V61.7913H129.68V59.7734H118.582V49.4095H135.733ZM142.576 62.8003C142.576 70.3212 146.933 77.0164 154.545 77.0164C157.801 77.0164 165.689 75.4114 165.918 59.2692H166.422C166.881 76.2829 159.269 80.8229 151.931 80.8229C143.264 80.8229 137.164 73.5771 137.164 62.7544C137.164 52.2528 143.264 45.2821 153.445 45.2821C157.251 45.2821 161.195 46.1075 165.23 48.2628L156.7 56.1047L156.425 55.9215C157.893 53.8578 158.672 52.6195 158.672 50.8768C158.672 48.3547 156.334 47.8503 153.857 47.8503C147.162 47.8503 142.576 55.3712 142.576 62.8003V62.8003ZM193.504 45.4198H166.493V49.3176H177.682V79.8139H182.314V49.3176H193.504V45.4198ZM209.825 80.5935C219.409 80.5935 225.784 73.5771 225.784 63.0754C225.784 52.3902 219.409 45.2821 209.825 45.2821C200.24 45.2821 193.82 52.3902 193.82 63.0754C193.82 73.5771 200.24 80.5935 209.825 80.5935ZM209.825 76.6955C202.992 76.6955 198.452 71.2382 198.452 63.0296C198.452 54.729 202.992 49.1801 209.825 49.1801C216.658 49.1801 221.152 54.729 221.152 63.0296C221.152 71.2382 216.658 76.6955 209.825 76.6955ZM259.254 72.293C258.154 74.9989 256.916 76.0075 254.072 76.0075C251.413 76.0075 247.927 72.4765 245.222 68.4868C253.385 68.3033 257.787 62.4335 257.787 56.1966C257.787 49.593 253.614 44.7776 247.423 44.7776C242.241 44.7776 236.05 47.1623 235.821 61.929H235.683L236.05 52.9866C236.233 48.5383 237.655 45.695 240.406 45.8324V45.5114H226.786V45.8324C229.309 45.9243 231.051 48.5382 231.372 52.5279V72.7975C231.051 76.7871 229.309 79.4011 226.786 79.493V79.8139H240.406V79.493C238.068 79.5846 236.096 78.3463 236.096 70.8257C236.096 66.8357 236.233 63.4882 236.371 59.6818H236.508C236.508 65.1391 240.085 67.9366 243.663 68.3949C246.276 75.1821 249.074 80.41 253.66 80.41C257.191 80.41 258.933 77.0165 259.392 72.293H259.254ZM237.059 59.636C237.059 53.0782 240.544 48.7215 245.726 48.7215C249.991 48.7215 252.834 52.3444 252.834 57.8017C252.834 63.2589 249.532 66.9276 244.58 66.9276H244.213C243.02 65.0014 242.103 63.1212 241.507 61.5162H241.186C241.828 63.3047 242.424 65.0933 243.066 66.7899C239.397 66.2396 237.059 63.4882 237.059 59.636V59.636ZM284.9 69.8167C284.9 63.9466 278.665 61.1952 273.437 58.948C269.677 57.343 266.42 55.8757 266.42 53.6743C266.42 50.6017 268.989 48.8592 273.024 48.8592C276.326 48.8592 279.032 50.7394 280.27 54.0871L284.029 52.0234C282.288 47.4832 277.977 44.9612 273.024 44.9612C266.191 44.9612 261.789 48.6757 261.789 53.5827C261.789 58.5354 267.063 60.9659 271.969 63.1212C276.326 65.0475 280.408 66.9276 280.408 70.3212C280.408 74.3109 277.335 76.5581 272.795 76.5581C269.126 76.5581 265.687 74.2192 263.577 70.1377L260.138 72.981C262.522 77.7502 267.384 80.4558 272.749 80.4558C280.086 80.4558 284.9 76.6955 284.9 69.8167V69.8167ZM22.0582 90.0981V104.498H4.63177V90.0981H0V124.492H4.63177V108.396H22.0582V124.492H26.6899V90.0981H22.0582ZM56.7368 124.492H61.5061L48.9408 90.144H42.1994V95.0049H40.457V98.1691H38.9435V101.425H37.7053V104.544H36.238V107.845H34.8162V111.056H33.5321V114.174H32.2022V117.338H30.6888V120.548H29.726V124.446H34.3575V121.236H35.3665V118.072H36.8799V114.954H38.2097V111.743H52.1508L56.7368 124.492ZM40.9153 107.845V105.323H42.3371V102.067H43.5754V98.9029H45.0885V95.4635H46.3268L50.7751 107.845H40.9153ZM87.598 90.0981L77.0047 119.494L66.4569 90.0981H61.8254L74.3907 124.492H79.4809L92.0463 90.0981H87.598ZM93.7079 124.492H115.491V120.457H98.3397V108.396H113.473V104.498H98.3397V94.0878H115.491V90.0981H93.7079V124.492ZM129.47 89.6395C129.149 90.5565 128.965 91.3822 128.965 92.1157C128.965 95.4177 130.433 97.2521 134.147 97.2979C136.211 97.2979 139.971 96.6099 143.549 95.5093L143.64 95.7387C138.733 97.573 132.863 103.03 132.863 112.477C132.863 120.044 137.495 125.088 143.044 125.088C151.253 125.088 155.518 117.522 155.518 106.103H155.105C155.105 115.596 151.574 121.878 146.346 121.878C141.76 121.878 138.779 118.439 138.733 112.386C138.596 96.3347 150.152 95.5551 159.462 91.2445V90.9236C153.408 92.6202 148.272 93.4456 139.33 93.4456C134.377 93.4456 128.874 93.2166 129.699 89.6395H129.47ZM174.861 125.272C184.445 125.272 190.82 118.255 190.82 107.754C190.82 97.0685 184.445 89.9604 174.861 89.9604C165.276 89.9604 158.856 97.0685 158.856 107.754C158.856 118.255 165.276 125.272 174.861 125.272ZM174.861 121.374C168.028 121.374 163.488 115.917 163.488 107.708C163.488 99.4074 168.028 93.8585 174.861 93.8585C181.694 93.8585 186.188 99.4074 186.188 107.708C186.188 115.917 181.694 121.374 174.861 121.374ZM232.262 106.837H231.942C231.162 106.837 230.52 106.24 230.52 105.507C230.52 104.773 229.878 104.223 229.098 104.223H221.807C221.027 104.223 220.385 104.865 220.385 105.644V105.828C220.385 106.607 219.743 107.249 218.963 107.249H213.093C212.314 107.249 211.672 106.607 211.672 105.828V98.3984C211.672 97.6188 212.314 96.9769 213.093 96.9769H227.172C227.952 96.9769 228.594 97.5272 228.594 98.261C228.594 98.9948 229.236 99.5909 230.016 99.5909H232.721C233.501 99.5909 234.143 98.9948 234.143 98.261C234.143 97.5272 233.501 96.9769 232.721 96.9769H230.978C230.199 96.9769 229.557 96.3347 229.557 95.5551V91.5197C229.557 90.74 228.915 90.0981 228.135 90.0981H212.13C211.351 90.0981 210.709 90.74 210.709 91.5197V95.5551C210.709 96.3347 210.067 96.9769 209.287 96.9769H206.627C205.848 96.9769 205.206 97.6188 205.206 98.3984V105.965C205.206 106.745 205.848 107.387 206.627 107.387H208.875C209.654 107.387 210.296 107.937 210.296 108.625C210.296 109.313 210.938 109.863 211.718 109.863H220.614C221.394 109.863 222.036 109.221 222.036 108.442V108.258C222.036 107.479 222.678 106.837 223.458 106.837H228.548C229.328 106.837 229.969 107.479 229.969 108.258V116.192C229.969 116.971 229.328 117.614 228.548 117.614H214.011C213.231 117.614 212.589 118.255 212.589 119.035V120.457C212.589 121.236 211.947 121.878 211.168 121.878H209.012C208.232 121.878 207.59 121.236 207.59 120.457V117.751C207.59 116.971 207.224 116.329 206.765 116.329C206.306 116.329 205.94 116.971 205.94 117.751V123.071C205.94 123.85 206.581 124.492 207.361 124.492H228.64C229.419 124.492 230.061 123.85 230.061 123.071V121.878C230.061 121.099 230.703 120.457 231.483 120.457H232.262C233.042 120.457 233.684 119.815 233.684 119.035V108.258C233.684 107.479 233.042 106.837 232.262 106.837V106.837ZM261.404 124.492H266.036L253.471 90.0981H248.38L235.815 124.492H240.263L243.748 114.816H257.919L261.404 124.492ZM245.17 110.918L250.857 95.0968L256.543 110.918H245.17ZM289.001 90.144L280.242 105.69L271.483 90.1898H266.347L277.949 110.276V124.492H282.581V110.276L294 90.144H289.001Z" fill="black"/>
</svg>
